<svg id="Layer_1" data-name="Layer 1" xmlns="http://www.w3.org/2000/svg" viewBox="0 0 375.86 398.44"><defs><style>.cls-1{fill:#748c9f;}.cls-2{fill:#414142;}.cls-3{fill:#9db2dd;}.cls-4{fill:#cde2f6;}.cls-5{fill:#567dbe;}.cls-6{fill:#d1d0d1;}</style></defs><title>BlueBlockAlone</title><g id="BlueBlock"><polygon class="cls-1" points="290.66 155.36 361.71 205.32 290.66 250.4 290.66 155.36"/><polygon class="cls-2" points="290.66 259.24 290.66 250.4 357.71 203.32 290.66 161.36 290.66 151.61 375.86 205.25 290.66 259.24"/><g id="SideFace-2"><polygon class="cls-3" points="10 290.42 10 105.13 170.27 200.29 170.27 385.58 10 290.42"/><path class="cls-2" d="M12,108.65l156.27,92.79V382.07L12,289.31V108.65m-4-7V291.56L172.27,389.1V199.15L8,101.62Z"/></g><g id="TopFace-2"><polygon class="cls-4" points="11.95 101.64 167.46 11.52 327.47 101.69 172.26 196.82 11.95 101.64"/><path class="cls-2" d="M167.47,13.82l156,87.94L172.24,194.48,15.91,101.66,167.48,13.82m0-4.61L8,101.62l164.27,97.54,159.14-97.54-164-92.4Z"/></g><g id="FrontFace-2"><polygon class="cls-5" points="174.27 200.27 329.41 105.19 329.41 290.44 174.27 385.52 174.27 200.27"/><path class="cls-2" d="M327.41,108.76V289.31L176.27,382V201.39l151.14-92.63m4-7.14L172.27,199.15V389.09l159.14-97.54V101.62Z"/></g><g id="Outline-2"><path class="cls-2" d="M167.45,9.21l164,92.4v190L172.27,389.09,8,291.56V101.62L167.45,9.22M167.39,0l-4,2.29L4,94.7,0,97v199.1l3.92,2.33L168.19,396l4.15,2.46,4.11-2.52,159.14-97.54,3.82-2.34V96.94l-4.07-2.3-164-92.4-4-2.24Z"/></g><path class="cls-6" d="M254.54,284.1A64.73,64.73,0,0,1,239.67,291q-6.68,1.95-11.39.4a12.36,12.36,0,0,1-7.27-6.85q-2.56-5.3-2.56-14.83V259.22l70.42-42.31v13.5a59.43,59.43,0,0,1-2,15.68,51.74,51.74,0,0,1-6.22,14.08A62.67,62.67,0,0,1,270,272.78,94.64,94.64,0,0,1,254.54,284.1Z"/><path class="cls-2" d="M232.83,297.05a19.49,19.49,0,0,1-6.12-.93c-4.47-1.47-7.9-4.64-10.21-9.42-2.06-4.26-3.06-9.82-3.06-17V256.39l80.42-48.32v22.34a64.72,64.72,0,0,1-2.2,17,57,57,0,0,1-6.82,15.43,68,68,0,0,1-11.51,13.62,100.1,100.1,0,0,1-16.22,11.93h0a70,70,0,0,1-16,7.38A29.54,29.54,0,0,1,232.83,297.05Zm-9.39-35v7.63c0,5.57.69,9.83,2.06,12.66,1.47,3,3.17,3.89,4.33,4.27,2.15.71,5,.56,8.43-.45A60.13,60.13,0,0,0,252,279.82a90.12,90.12,0,0,0,14.6-10.72,58,58,0,0,0,9.83-11.6A47,47,0,0,0,282,244.78a54.74,54.74,0,0,0,1.84-14.37v-4.66Z"/><polygon class="cls-2" points="234.71 210.55 205.47 228.12 205.47 238.01 234.71 220.44 234.71 210.55"/><polygon class="cls-2" points="301.83 170.21 272.6 187.78 272.6 197.67 301.83 180.1 301.83 170.21"/><polygon class="cls-4" points="115.8 257.34 182.85 311.31 115.8 332.38 115.8 257.34"/><polygon class="cls-2" points="115.8 341.22 115.8 332.38 182.85 311.31 115.8 257.34 115.8 247.6 201 314.23 115.8 341.22"/></g></svg>