<svg id="Layer_1" data-name="Layer 1" xmlns="http://www.w3.org/2000/svg" viewBox="0 0 414.28 438.08"><defs><style>.cls-1{fill:#749176;}.cls-2{fill:#414142;}.cls-3{fill:#52b57f;}.cls-4{fill:#a1d0a7;}.cls-5{fill:#0ab09f;}.cls-6{fill:#f49d8d;}</style></defs><title>GreenBlockAlone</title><g id="GreenBlock"><g id="BackArm"><polygon class="cls-1" points="320.2 164.1 394.24 223.7 320.2 246.98 320.2 164.1"/><polygon class="cls-2" points="320.2 256.74 320.2 246.98 394.24 223.7 320.2 164.1 320.2 153.34 414.28 226.93 320.2 256.74"/></g><g id="SideFace-3"><polygon class="cls-3" points="10.03 319.88 10.03 114.77 187.45 220.11 187.45 425.22 10.03 319.88"/><path class="cls-2" d="M12,118.28l173.42,103V421.71L12,318.71V118.28m-4-7V321L189.45,428.71V219L8,111.26Z"/></g><polygon class="cls-4" points="11.98 111.28 184.13 11.51 361.25 111.33 189.43 216.64 11.98 111.28"/><path class="cls-2" d="M184.15,13.82,357.31,111.4,189.42,214.3,15.94,111.3,184.15,13.82m0-4.61L8.06,111.21,189.45,219l175.7-107.71Z"/><polygon class="cls-5" points="191.45 220.09 363.2 114.83 363.2 319.9 191.45 425.17 191.45 220.09"/><path class="cls-2" d="M361.15,118.4V318.78L193.45,421.59V221.21L361.15,118.4m4-7.14L189.45,219V428.71L365.15,321Z"/><path class="cls-2" d="M184.15,9.21l181,102V321L189.45,428.71,8,321V111.26l176.12-102M184.09,0l-4,2.29L4,104.29,0,106.6v219l3.92,2.32L185.36,435.62l4.15,2.46,4.11-2.52L369.38,327.84l3.82-2.34V106.58l-4-2.29L188.07,2.29l-4-2.24Z"/><g id="Face"><path class="cls-6" d="M281.49,318.92a84.89,84.89,0,0,1-19.5,9q-8.76,2.55-14.94.52t-9.54-9q-3.36-6.92-3.36-19.43V286.29L326.5,230.8v17.7a77.94,77.94,0,0,1-2.65,20.57,67.86,67.86,0,0,1-8.16,18.46,82.19,82.19,0,0,1-14,16.54A124.12,124.12,0,0,1,281.49,318.92Z"/><path class="cls-2" d="M253,335.34a25,25,0,0,1-7.85-1.19c-5.71-1.88-10.11-5.94-13.07-12.07-2.66-5.51-4-12.72-4-22.06V282.9l104.35-62.7v28.3a84.3,84.3,0,0,1-2.86,22.15,74.14,74.14,0,0,1-8.83,20.06,88.6,88.6,0,0,1-15,17.75A130.71,130.71,0,0,1,284.58,324a91.17,91.17,0,0,1-20.91,9.67A38.21,38.21,0,0,1,253,335.34Zm-12.87-45.63V300c0,7.39.93,13.06,2.76,16.85,1.51,3.13,3.48,5.06,6,5.89,2.93,1,6.76.77,11.39-.58a79.43,79.43,0,0,0,18.09-8.39h0a118.79,118.79,0,0,0,19.24-14.12,76.61,76.61,0,0,0,13-15.33,62.16,62.16,0,0,0,7.45-16.83,72.28,72.28,0,0,0,2.44-19v-7.09Z"/><polygon class="cls-2" points="258.4 231.56 226.11 250.96 226.11 261.88 258.4 242.48 258.4 231.56"/><polygon class="cls-2" points="332.53 187.01 300.25 206.41 300.25 217.34 332.53 197.94 332.53 187.01"/></g><g id="FrontArm"><polygon class="cls-4" points="127.09 280.1 201.13 339.7 127.09 362.98 127.09 280.1"/><polygon class="cls-2" points="127.09 372.74 127.09 362.98 201.13 339.7 127.09 280.1 127.09 269.34 221.17 342.93 127.09 372.74"/></g></g></svg>