<svg id="Layer_1" data-name="Layer 1" xmlns="http://www.w3.org/2000/svg" viewBox="0 0 295.98 315.93"><defs><style>.cls-1{fill:#81778e;}.cls-2{fill:#414142;}.cls-3{fill:#b094c5;}.cls-4{fill:#cfc3e1;}.cls-5{fill:#7975b5;}.cls-6{fill:#d1d0d1;}</style></defs><title>VioletBlockAlone</title><g id="VioletBlock"><polygon class="cls-1" points="66.69 125.83 14.21 168.08 66.69 184.58 66.69 125.83"/><polygon class="cls-2" points="66.69 191.5 66.69 184.58 14.21 168.08 66.69 125.83 66.69 118.2 0 170.37 66.69 191.5"/><g id="SideFace"><polygon class="cls-3" points="161.37 159.04 285.97 85.06 285.97 229.1 161.37 303.08 161.37 159.04"/><path class="cls-2" d="M284,88.58V228l-120.6,71.6V160.18L284,88.58m4-7L159.37,157.9V306.6L288,230.25V81.58Z"/></g><g id="TopFace"><polygon class="cls-4" points="38.74 81.62 163.14 11.52 284.02 81.57 159.39 155.57 38.74 81.62"/><path class="cls-2" d="M163.12,13.82l117,67.77L159.41,153.23,42.69,81.69,163.12,13.82m0-4.61L34.8,81.55,159.37,157.9,288,81.55,163.15,9.21Z"/></g><g id="FrontFace"><polygon class="cls-5" points="36.8 229.12 36.8 85.12 157.37 159.03 157.37 303.02 36.8 229.12"/><path class="cls-2" d="M38.8,88.69l116.58,71.45V299.45L38.8,228V88.69m-4-7.14V230.24L159.37,306.6V157.9Z"/></g><g id="Outline"><path class="cls-2" d="M163.15,9.21,288,81.55V230.24L159.37,306.6,34.8,230.24V81.55L163.15,9.21M163.21,0l-4,2.24L30.87,74.58,26.8,76.87V234.72l3.82,2.34L155.2,313.41l4.11,2.52,4.15-2.46,128.6-76.35L296,234.8V76.94l-4-2.31L167.16,2.29l-4-2.29Z"/></g><path class="cls-6" d="M81.72,216.87a53.62,53.62,0,0,1-9.13-10.79,44.27,44.27,0,0,1-5.32-12,50.85,50.85,0,0,1-1.74-13.46V169.07l60.25,36.2v9q0,8.16-2.19,12.69a10.57,10.57,0,0,1-6.22,5.86q-4,1.33-9.75-.34A55.38,55.38,0,0,1,94.9,226.6,81,81,0,0,1,81.72,216.87Z"/><path class="cls-2" d="M113.53,237.36a25,25,0,0,1-7-1.08A59.54,59.54,0,0,1,92.85,230,85.37,85.37,0,0,1,79,219.82h0a57.88,57.88,0,0,1-9.8-11.6,48.48,48.48,0,0,1-5.8-13.13,55.08,55.08,0,0,1-1.89-14.47V162l68.25,41v11.21c0,6.11-.85,10.83-2.59,14.43a14.47,14.47,0,0,1-8.58,7.92A16.4,16.4,0,0,1,113.53,237.36Zm-29-23.43a77.4,77.4,0,0,0,12.54,9.2,51.71,51.71,0,0,0,11.78,5.46c3,.88,5.49,1,7.38.38,1-.34,2.57-1.11,3.87-3.8,1.19-2.46,1.79-6.15,1.79-11v-6.69L69.53,176.14v4.48A47.09,47.09,0,0,0,71.13,193,40.48,40.48,0,0,0,76,204a49.91,49.91,0,0,0,8.45,10Z"/><polygon class="cls-2" points="110.5 166.82 133.39 180.58 133.39 188.32 110.5 174.57 110.5 166.82"/><polygon class="cls-2" points="57.95 135.25 80.84 149 80.84 156.74 57.95 142.99 57.95 135.25"/><polygon class="cls-4" points="203.58 199.97 151.1 242.22 203.58 258.72 203.58 199.97"/><polygon class="cls-2" points="203.58 265.63 203.58 258.72 151.1 242.22 203.58 199.97 203.58 192.34 136.89 244.5 203.58 265.63"/></g></svg>